# xmcd CD database file
#
# Track frame offsets:
#	150
#	26108
#	46423
#	60353
#	75870
#	89673
#	117303
#	132885
#	164383
#	176546
#	195324
#	214024
#
# Disc length: 3155 seconds
#
# Revision: 0
# Processed by: cddbd v1.5.2PL0 Copyright (c) Steve Scherf et al.
# Submitted via: CDex 1.83
#
DISCID=970c510c
DTITLE=Phil Lee - Phil Lee and The Horse He Rode In On
DYEAR=2018
DGENRE=Country
TTITLE0=The Mighty King Of Love
TTITLE1=Wake Up Crying
TTITLE2=Hey Buddy
TTITLE3=No Exit Wound
TTITLE4=I Don't Forget Like I Used To
TTITLE5=Rebel In My Heart
TTITLE6=Party Drawers
TTITLE7=Bad For Me
TTITLE8=My Man Is Gone
TTITLE9=All Right Here
TTITLE10=Turn To Stone
TTITLE11=Sonny George
EXTD=YEAR: 2018
EXTT0=
EXTT1=
EXTT2=
EXTT3=
EXTT4=
EXTT5=
EXTT6=
EXTT7=
EXTT8=
EXTT9=
EXTT10=
EXTT11=
PLAYORDER=
